<?xml version="1.0" encoding="UTF-8"?>
<svg width="260" height="60" viewBox="0 0 240 60" xmlns="http://www.w3.org/2000/svg" role="img" aria-label="Логотип Котлы Барнаул">
  <defs>
    <style>
      .cls-1 { fill: var(--primary, #005f73); }
      .cls-2 { fill: var(--accent, #94d2bd); }
      .cls-3 { font-family: 'Inter', sans-serif; font-size: 24px; font-weight: 600; fill: #ECF0F1 }
    </style>
  </defs>
  <g class="cls-1" transform="translate(0 8)">
    <rect x="0" y="10" width="40" height="24" rx="4" />
    <rect x="-6" y="4" width="6" height="12" rx="3" />
    <rect x="40" y="4" width="6" height="12" rx="3" />
    <rect x="8" y="34" width="4" height="6" rx="2" />
    <rect x="28" y="34" width="4" height="6" rx="2" />
  </g>
  <path class="cls-2" d="M24 16c0-4-4-8-4-12s-6 4-6 8 2 6 2 10c0 4 4 6 4 6s4-2 4-6c0-4 2-6 2-10s-6 4-6 12z" transform="translate(0 8)" />
  <text class="cls-3" x="60" y="38">Котлы Барнаул</text>
</svg>
